<svg xmlns="http://www.w3.org/2000/svg" xmlns:xlink="http://www.w3.org/1999/xlink" version="1.1" height="100%" width="100%" x="0px" y="0px" viewBox="0 0 560 480" xml:space="preserve" preserveAspectRatio="xMidYMid meet" class=""><rect x="0px" y="0px" width="100%" height="100%" fill="transparent"/><g class="logo-container-box logoContainerBox" transform="scale(2) translate(-405,-120)"><g class="containerBody"><g class="sampleIconBox"><g class="iconFrame" transform="scale(1) translate(447.286075592041,139.9482502937317)" fill="#032b44"><g>
	<path class="st0" d="M124.1,3.8c0,0,6.4,2.1,7.6,2.9c0,0-20.3-5.8-31.5-4c0,0,12,0.8,15.9,3.8c0,0-15.5-4.4-39.1,2.8   c0,0,39.9-8.9,72.3,12.3s53.6,60.8,36.8,108.2s-67.7,66.8-104.8,59.6c-37.1-7.2-68.1-36.4-74.1-73.9s5.7-56.5,9.4-63   c3.7-6.5,7.2-11.1,9.1-14.6c1.1-2.1,3.5-5.3,6.6-8.5c-0.5,1.4,0.7,3.4,4,3.5c3.6,0.1,6.1-1.6,6.1-1.6s-2.5-3-5.3-3.7   c-1.6-0.4-2.8,0.1-3.6,0.6c1.2-1.2,2.5-2.4,3.9-3.6c0.2,0.3,1.8,3.2,5,3.2c3.3,0,6-1.8,6-1.8s-2.6-3.2-5.7-3.6   c-1.3-0.2-2.4,0.2-3.4,0.7c1.7-1.3,3.3-2.5,4.7-3.6c-0.1,0.9,1.6,3.6,4.9,3.6c3.4,0,5.9-1.7,5.9-1.7s-2.6-3.4-5.8-3.7   c-1.5-0.1-2.6,0.2-3.5,0.6c1.5-1.2,2.8-2.1,3.6-2.8c1,0.1,3.6,0.1,5.5-1.4c2.4-2,3.1-5.3,3.1-5.3s-4.3-0.6-6.7,1   c-1.8,1.2-2.2,3.7-2.3,5c-0.5,0.3-1.6,1-2.9,1.9c0.6-0.9,1.1-2.1,1-3.3c-0.4-3-2.3-5.3-2.3-5.3s-3.3,2.3-3.1,6.2   c0.1,2.9,1.2,4,1.8,4.5c-1,0.8-2.1,1.6-3.2,2.5c0.5-1,0.8-2.2,0.6-3.4c-0.6-3-2.4-4.7-2.4-4.7s-2.4,1.8-3,5.7c-0.4,2.9,1,4.4,1.7,5   c-1,0.9-2.1,1.8-3.1,2.8c0.1-0.2,0.2-0.4,0.3-0.7c0.9-3.2-1-6.4-2.1-7.9c0,0-6.2,5.3-1.1,11.2c0,0,0.1,0,0.2,0   c-3.6,3.5-7.3,7.5-10.5,11.9C9.3,56.4-0.3,79.4,0.8,101.6c1.1,22.1,9.7,64.3,57.9,87.1s103.9,0.7,129.6-45.9S194.7,20.9,124.1,3.8z   "/>
</g></g><g class="sampleIcons_1" transform="scale(3.260869565217391) translate(144.78933333333333,49.60000000000001)" fill="#008a8c"><g><g><path stroke="#000000" stroke-width="2" stroke-miterlimit="10" d="M35.537,43.541H12.462    C6.035,43.541,1,39.676,1,34.74v-5.417c0-1.868,1.562-3.384,3.488-3.384c1.927,0,3.489,1.516,3.489,3.384v5.417    c0,0.698,1.747,2.034,4.485,2.034h23.075c2.737,0,4.485-1.336,4.485-2.034v-5.417c0-1.868,1.562-3.384,3.488-3.384    S47,27.455,47,29.323v5.417C47,39.676,41.964,43.541,35.537,43.541z"/></g><path stroke="#000000" stroke-width="2" stroke-linecap="round" stroke-linejoin="round" stroke-miterlimit="10" d="   M4.599,25.939c0,0,0-1.383,0-3.075c0-1.69,1.774-3.075,3.946-3.075h30.91c2.172,0,3.946,1.384,3.946,3.075c0,1.692,0,3.075,0,3.075   "/><line stroke="#000000" stroke-width="2" stroke-linecap="round" stroke-linejoin="round" stroke-miterlimit="10" x1="24" y1="20.173" x2="24" y2="36.124"/><g><line stroke="#000000" stroke-width="2" stroke-linecap="round" stroke-linejoin="round" stroke-miterlimit="10" x1="10.751" y1="43.495" x2="10.751" y2="47"/><line stroke="#000000" stroke-width="2" stroke-linecap="round" stroke-linejoin="round" stroke-miterlimit="10" x1="37.248" y1="43.495" x2="37.248" y2="47"/></g><rect x="8.384" y="1" stroke="#000000" stroke-width="2" stroke-linecap="round" stroke-linejoin="round" stroke-miterlimit="10" width="31.232" height="13.372"/></g></g></g></g></g></svg>