<svg xmlns="http://www.w3.org/2000/svg" xmlns:xlink="http://www.w3.org/1999/xlink" version="1.1" height="100%" width="100%" x="0px" y="0px" viewBox="0 0 480 360">
<rect x="0px" y="0px" width="100%" height="100%" fill="transparent"/>
<g class="logo-container-box logoContainerBox" transform="scale(2.7) translate(-230,-280)">
<g class="containerBody">
<g class="sampleIconBox"><g class="sampleIcons_1" transform="scale(3.198294399153837) translate(76.10332977374394,85.70369456481933)" fill="#f4dbd8"><g><g><g><path d="M1.5,19.4c-0.2,2.8,0.3,8,2.9,9.6c1.4,0.9,4.4,0.3,5.9,0.3c3.6-0.1,7.2-0.1,10.8-0.2     c6.5-0.1,14,0.5,20.4-0.9c3.2-0.7,3.1-7.8,2.9-10.1c-0.1-0.8-1.3-0.8-1.3,0c0.2,2.1,0.1,3.8-0.5,5.9c-0.9,3.7-4.6,3.2-7.2,3.3     c-4.2,0.3-8.5,0.4-12.7,0.5c-4.2,0.1-8.3,0.1-12.5,0.2c-2.4,0-6.2,0.9-6.7-3.2c-0.2-2-1.1-3.3-0.9-5.5     C2.8,18.6,1.6,18.6,1.5,19.4L1.5,19.4z"/></g></g><g><g><path d="M1.1,34.1c15.3,0.8,30.5-1.4,45.7-0.6c0.8,0,0.8-1.2,0-1.3c-15.3-0.8-30.5,1.4-45.7,0.6     C0.3,32.8,0.3,34.1,1.1,34.1L1.1,34.1z"/></g></g><g><g><path d="M36.6,33.1c0.2,1.5,0.2,3.1,0.2,4.6c0,0.8,1.2,0.8,1.3,0c0-1.6,0-3.1-0.2-4.6     C37.7,32.3,36.5,32.3,36.6,33.1L36.6,33.1z">
</path></g></g><g><g><path d="M8.4,34c0,1.3,0.1,2.6,0.3,3.9c0.1,0.8,1.3,0.5,1.2-0.3c-0.2-1.2-0.3-2.4-0.3-3.6     C9.6,33.2,8.4,33.2,8.4,34L8.4,34z">
</path></g></g><g><g><path d="M6.2,10.9c-0.3,3.3-0.5,6.5-0.5,9.8c0,1.3,0,4,1.4,4.8c0.5,0.3,1.7,0.2,2,0.2c2,0,4,0,6,0     c1.4,0,6.4,0.7,7.2-0.7c0.3-0.5,0.2-1.5,0.2-2c0-2,0-4,0-6c0-2,0.7-5.3-0.3-7c-0.7-1.2-4.8-0.4-5.9-0.4c-3.3,0-6.6-0.3-9.7,0.7     c-0.8,0.2-0.4,1.5,0.3,1.2c4.1-1.3,8.8-0.7,13-0.7c1.3-0.2,1.7,0.2,1.4,1.4c0,1.2,0,2.4,0,3.6c0,2.4,0,4.8,0,7.2     c0,2.1-5,1.5-6.2,1.5c-1.5,0-7.2,0.8-7.9-1.1C6,19.8,7.1,14.6,7.4,10.9C7.5,10.1,6.3,10.1,6.2,10.9L6.2,10.9z"/></g></g><g><g><path d="M25,10.7c0.2,3,0.4,6,0.6,9c0.1,1.1-0.3,4.7,0.8,5.4c1.7,1,5,0.4,6.9,0.3c2.2-0.1,5-0.2,6.9-1.3     c1.1-0.6,0.4-4.5,0.3-5.5c0-2.5,0.2-5.1-0.4-7.5c-0.4-1.4-2.7-1.2-3.7-1.3c-3.2-0.3-6.5-0.3-9.7,0c-0.8,0.1-0.8,1.3,0,1.3     c3.6-0.3,7.2-0.2,10.8,0.1c2.4,0.2,1.7,3.4,1.8,5.1c0,1.3,0.8,6.7-1,7.1c-1.3,0.3-10.9,2.2-11.1-0.3c-0.3-4.1-0.6-8.2-0.9-12.4     C26.2,9.9,24.9,9.9,25,10.7L25,10.7z"/></g></g></g></g></g></g></g></svg>