<svg xmlns="http://www.w3.org/2000/svg" xmlns:xlink="http://www.w3.org/1999/xlink" version="1.1" height="100%" width="100%" x="0px" y="0px" viewBox="0 0 360 360">
<rect x="0px" y="0px" width="100%" height="100%" fill=""/>
<g class="logo-container-box logoContainerBox" transform="scale(1.8) translate(-220,-249)">
<g class="containerBody">
<g class="sampleIconBox"><g class="iconFrame" transform="scale(1) translate(220.00522208213806,249.1249626636505)" fill="#f4dbd8"><g>
	<path class="st0" d="M196.2,86l-15-39c-4.4-11.5-13-20.7-23.5-25.4L118.7,4.3c-10.8-4.8-22.9-5.1-34-0.8L46.8,19.1   C35,23.7,26,31.8,21.6,42l-17,39.2c-4.8,10.8-5,22.9-0.8,34l15.8,38.9c4.3,11.1,12.6,19.8,23.4,24.6l38.1,16.9   c5.7,2.6,11.9,3.9,18,3.9c5.4,0,10.8-1,16-2.9l38.7-15c11.1-4.3,19.8-12.7,24.6-23.5l16.9-38.1C200.2,109.1,200.4,97,196.2,86z    M193.7,119.2l-16.9,38.1c-4.6,10.4-13,18.5-23.6,22.5l-38.7,15c-10.6,4.1-22.2,3.8-32.7-0.8l-38.1-16.9   c-10.4-4.6-18.4-13-22.5-23.6L5.5,114.5c-4.1-10.6-3.8-22.2,0.8-32.6l17-39.2c4.3-9.7,12.9-17.5,24.3-21.9L85.4,5.2   c10.6-4.1,22.2-3.8,32.7,0.7L157,23.2c10.1,4.5,18.2,13.4,22.5,24.4l15,39C198.6,97.2,198.3,108.8,193.7,119.2z"/>
</g></g><g class="sampleIcons_1" transform="scale(3.198294399153837) translate(76.10332977374394,85.70369456481933)" fill="#f4dbd8"><g><g><g><path d="M1.5,19.4c-0.2,2.8,0.3,8,2.9,9.6c1.4,0.9,4.4,0.3,5.9,0.3c3.6-0.1,7.2-0.1,10.8-0.2     c6.5-0.1,14,0.5,20.4-0.9c3.2-0.7,3.1-7.8,2.9-10.1c-0.1-0.8-1.3-0.8-1.3,0c0.2,2.1,0.1,3.8-0.5,5.9c-0.9,3.7-4.6,3.2-7.2,3.3     c-4.2,0.3-8.5,0.4-12.7,0.5c-4.2,0.1-8.3,0.1-12.5,0.2c-2.4,0-6.2,0.9-6.7-3.2c-0.2-2-1.1-3.3-0.9-5.5     C2.8,18.6,1.6,18.6,1.5,19.4L1.5,19.4z"/></g></g><g><g><path d="M1.1,34.1c15.3,0.8,30.5-1.4,45.7-0.6c0.8,0,0.8-1.2,0-1.3c-15.3-0.8-30.5,1.4-45.7,0.6     C0.3,32.8,0.3,34.1,1.1,34.1L1.1,34.1z"/></g></g><g><g><path d="M36.6,33.1c0.2,1.5,0.2,3.1,0.2,4.6c0,0.8,1.2,0.8,1.3,0c0-1.6,0-3.1-0.2-4.6     C37.7,32.3,36.5,32.3,36.6,33.1L36.6,33.1z">
</path></g></g><g><g><path d="M8.4,34c0,1.3,0.1,2.6,0.3,3.9c0.1,0.8,1.3,0.5,1.2-0.3c-0.2-1.2-0.3-2.4-0.3-3.6     C9.6,33.2,8.4,33.2,8.4,34L8.4,34z">
</path></g></g><g><g><path d="M6.2,10.9c-0.3,3.3-0.5,6.5-0.5,9.8c0,1.3,0,4,1.4,4.8c0.5,0.3,1.7,0.2,2,0.2c2,0,4,0,6,0     c1.4,0,6.4,0.7,7.2-0.7c0.3-0.5,0.2-1.5,0.2-2c0-2,0-4,0-6c0-2,0.7-5.3-0.3-7c-0.7-1.2-4.8-0.4-5.9-0.4c-3.3,0-6.6-0.3-9.7,0.7     c-0.8,0.2-0.4,1.5,0.3,1.2c4.1-1.3,8.8-0.7,13-0.7c1.3-0.2,1.7,0.2,1.4,1.4c0,1.2,0,2.4,0,3.6c0,2.4,0,4.8,0,7.2     c0,2.1-5,1.5-6.2,1.5c-1.5,0-7.2,0.8-7.9-1.1C6,19.8,7.1,14.6,7.4,10.9C7.5,10.1,6.3,10.1,6.2,10.9L6.2,10.9z"/></g></g><g><g><path d="M25,10.7c0.2,3,0.4,6,0.6,9c0.1,1.1-0.3,4.7,0.8,5.4c1.7,1,5,0.4,6.9,0.3c2.2-0.1,5-0.2,6.9-1.3     c1.1-0.6,0.4-4.5,0.3-5.5c0-2.5,0.2-5.1-0.4-7.5c-0.4-1.4-2.7-1.2-3.7-1.3c-3.2-0.3-6.5-0.3-9.7,0c-0.8,0.1-0.8,1.3,0,1.3     c3.6-0.3,7.2-0.2,10.8,0.1c2.4,0.2,1.7,3.4,1.8,5.1c0,1.3,0.8,6.7-1,7.1c-1.3,0.3-10.9,2.2-11.1-0.3c-0.3-4.1-0.6-8.2-0.9-12.4     C26.2,9.9,24.9,9.9,25,10.7L25,10.7z"/></g></g></g></g></g></g></g></svg>