<svg xmlns="http://www.w3.org/2000/svg" xmlns:xlink="http://www.w3.org/1999/xlink" version="1.1" height="100%" width="100%" x="0px" y="0px" viewBox="0 0 560 480" xml:space="preserve" preserveAspectRatio="xMidYMid meet" class=""><defs><linearGradient id="textGradient3658196316"><stop offset="0.05" stop-color="#B68648"/><stop offset="0.95" stop-color="#FBF3A3"/></linearGradient></defs><defs><linearGradient id="iconGradient3658196316"><stop offset="0.05" stop-color="#B68648"/><stop offset="0.95" stop-color="#FBF3A3"/></linearGradient></defs><defs><linearGradient id="frameGradient3658196316"><stop offset="0.05" stop-color="#B68648"/><stop offset="0.95" stop-color="#FBF3A3"/></linearGradient></defs><defs><linearGradient id="iconFrameGradient3658196316"><stop offset="0.05" stop-color="#B68648"/><stop offset="0.95" stop-color="#FBF3A3"/></linearGradient></defs><rect x="0px" y="0px" width="100%" height="100%" fill="transparent"/><g class="logo-container-box logoContainerBox" transform="scale(2.2) translate(-190,-238)"><g class="containerBody"><g class="sampleIconBox"><g class="iconFrame" transform="scale(1) translate(220.06018447875977,247.2464467048645)" fill="url(#iconFrameGradient3658196316)"><g>
	<path class="st0" d="M124.1,3.8c0,0,6.4,2.1,7.6,2.9c0,0-20.3-5.8-31.5-4c0,0,12,0.8,15.9,3.8c0,0-15.5-4.4-39.1,2.8   c0,0,39.9-8.9,72.3,12.3s53.6,60.8,36.8,108.2s-67.7,66.8-104.8,59.6c-37.1-7.2-68.1-36.4-74.1-73.9s5.7-56.5,9.4-63   c3.7-6.5,7.2-11.1,9.1-14.6c1.1-2.1,3.5-5.3,6.6-8.5c-0.5,1.4,0.7,3.4,4,3.5c3.6,0.1,6.1-1.6,6.1-1.6s-2.5-3-5.3-3.7   c-1.6-0.4-2.8,0.1-3.6,0.6c1.2-1.2,2.5-2.4,3.9-3.6c0.2,0.3,1.8,3.2,5,3.2c3.3,0,6-1.8,6-1.8s-2.6-3.2-5.7-3.6   c-1.3-0.2-2.4,0.2-3.4,0.7c1.7-1.3,3.3-2.5,4.7-3.6c-0.1,0.9,1.6,3.6,4.9,3.6c3.4,0,5.9-1.7,5.9-1.7s-2.6-3.4-5.8-3.7   c-1.5-0.1-2.6,0.2-3.5,0.6c1.5-1.2,2.8-2.1,3.6-2.8c1,0.1,3.6,0.1,5.5-1.4c2.4-2,3.1-5.3,3.1-5.3s-4.3-0.6-6.7,1   c-1.8,1.2-2.2,3.7-2.3,5c-0.5,0.3-1.6,1-2.9,1.9c0.6-0.9,1.1-2.1,1-3.3c-0.4-3-2.3-5.3-2.3-5.3s-3.3,2.3-3.1,6.2   c0.1,2.9,1.2,4,1.8,4.5c-1,0.8-2.1,1.6-3.2,2.5c0.5-1,0.8-2.2,0.6-3.4c-0.6-3-2.4-4.7-2.4-4.7s-2.4,1.8-3,5.7c-0.4,2.9,1,4.4,1.7,5   c-1,0.9-2.1,1.8-3.1,2.8c0.1-0.2,0.2-0.4,0.3-0.7c0.9-3.2-1-6.4-2.1-7.9c0,0-6.2,5.3-1.1,11.2c0,0,0.1,0,0.2,0   c-3.6,3.5-7.3,7.5-10.5,11.9C9.3,56.4-0.3,79.4,0.8,101.6c1.1,22.1,9.7,64.3,57.9,87.1s103.9,0.7,129.6-45.9S194.7,20.9,124.1,3.8z   "/>
</g></g><g class="sampleIcons_1" transform="scale(3.198294399153837) translate(76.10332977374394,85.70369456481933)" fill="url(#iconGradient3658196316)"><g><g><g><path d="M1.5,19.4c-0.2,2.8,0.3,8,2.9,9.6c1.4,0.9,4.4,0.3,5.9,0.3c3.6-0.1,7.2-0.1,10.8-0.2     c6.5-0.1,14,0.5,20.4-0.9c3.2-0.7,3.1-7.8,2.9-10.1c-0.1-0.8-1.3-0.8-1.3,0c0.2,2.1,0.1,3.8-0.5,5.9c-0.9,3.7-4.6,3.2-7.2,3.3     c-4.2,0.3-8.5,0.4-12.7,0.5c-4.2,0.1-8.3,0.1-12.5,0.2c-2.4,0-6.2,0.9-6.7-3.2c-0.2-2-1.1-3.3-0.9-5.5     C2.8,18.6,1.6,18.6,1.5,19.4L1.5,19.4z"/></g></g><g><g><path d="M1.1,34.1c15.3,0.8,30.5-1.4,45.7-0.6c0.8,0,0.8-1.2,0-1.3c-15.3-0.8-30.5,1.4-45.7,0.6     C0.3,32.8,0.3,34.1,1.1,34.1L1.1,34.1z"/></g></g><g><g><path d="M36.6,33.1c0.2,1.5,0.2,3.1,0.2,4.6c0,0.8,1.2,0.8,1.3,0c0-1.6,0-3.1-0.2-4.6     C37.7,32.3,36.5,32.3,36.6,33.1L36.6,33.1z"/></g></g><g><g><path d="M8.4,34c0,1.3,0.1,2.6,0.3,3.9c0.1,0.8,1.3,0.5,1.2-0.3c-0.2-1.2-0.3-2.4-0.3-3.6     C9.6,33.2,8.4,33.2,8.4,34L8.4,34z"/></g></g><g><g><path d="M6.2,10.9c-0.3,3.3-0.5,6.5-0.5,9.8c0,1.3,0,4,1.4,4.8c0.5,0.3,1.7,0.2,2,0.2c2,0,4,0,6,0     c1.4,0,6.4,0.7,7.2-0.7c0.3-0.5,0.2-1.5,0.2-2c0-2,0-4,0-6c0-2,0.7-5.3-0.3-7c-0.7-1.2-4.8-0.4-5.9-0.4c-3.3,0-6.6-0.3-9.7,0.7     c-0.8,0.2-0.4,1.5,0.3,1.2c4.1-1.3,8.8-0.7,13-0.7c1.3-0.2,1.7,0.2,1.4,1.4c0,1.2,0,2.4,0,3.6c0,2.4,0,4.8,0,7.2     c0,2.1-5,1.5-6.2,1.5c-1.5,0-7.2,0.8-7.9-1.1C6,19.8,7.1,14.6,7.4,10.9C7.5,10.1,6.3,10.1,6.2,10.9L6.2,10.9z"/></g></g><g><g><path d="M25,10.7c0.2,3,0.4,6,0.6,9c0.1,1.1-0.3,4.7,0.8,5.4c1.7,1,5,0.4,6.9,0.3c2.2-0.1,5-0.2,6.9-1.3     c1.1-0.6,0.4-4.5,0.3-5.5c0-2.5,0.2-5.1-0.4-7.5c-0.4-1.4-2.7-1.2-3.7-1.3c-3.2-0.3-6.5-0.3-9.7,0c-0.8,0.1-0.8,1.3,0,1.3     c3.6-0.3,7.2-0.2,10.8,0.1c2.4,0.2,1.7,3.4,1.8,5.1c0,1.3,0.8,6.7-1,7.1c-1.3,0.3-10.9,2.2-11.1-0.3c-0.3-4.1-0.6-8.2-0.9-12.4     C26.2,9.9,24.9,9.9,25,10.7L25,10.7z"/></g></g></g></g></g></g></g></svg>